<svg id="Capa_1" data-name="Capa 1" xmlns="http://www.w3.org/2000/svg" viewBox="0 0 2671.04 609.09">
    <defs>
        <style>
            .cls-1 {
            fill: none;
            }

            .cls-2 {
            fill: #00898d;
            }

            .cls-3 {
            fill: #009096;
            }

            .cls-4 {
            fill: #98c9a3;
            }
        </style>
    </defs>
    <title>Монтажная область 2</title>
    <g>
        <path class="cls-1"
              d="M1276.17,310.54q-1-42.89-44.27-42.89h-51.47a17.94,17.94,0,0,1,13.38,5.66q5.48,5.66,5.49,12.18V393.92a10.57,10.57,0,0,0,2.92,7.55,10.12,10.12,0,0,0,7.72,3.09h23.68q22.3,0,32.26-10.81t10.29-32.43q.34-4.8.51-11.15t.17-14.24q0-7.89-.17-14.24T1276.17,310.54Z"/>
        <path class="cls-1"
              d="M294.38,158.25a48,48,0,0,1,89.21-4.12c60.72,8.56,113.56,38.69,149.79,83.45v0C515.84,127.78,414.45,44.67,291.73,44.67,206.46,44.67,131.39,85.35,87.62,147a47.2,47.2,0,0,1,8.21,26.67A47.73,47.73,0,0,1,53.46,221a213.76,213.76,0,0,0-6.3,51.61c0,65.3,29.48,124.18,76.7,165.73a224.08,224.08,0,0,1-7.57-62.67C118.47,269.75,193.92,182.2,294.38,158.25Z"/>
        <path class="cls-1"
              d="M2028.34,310.54q-1-42.89-44.27-42.89H1932.6a17.94,17.94,0,0,1,13.38,5.66q5.48,5.66,5.49,12.18V393.92a10.58,10.58,0,0,0,2.92,7.55,10.12,10.12,0,0,0,7.72,3.09h23.68q22.3,0,32.26-10.81t10.29-32.43q.34-4.8.51-11.15t.17-14.24q0-7.89-.17-14.24T2028.34,310.54Z"/>
        <ellipse class="cls-1" cx="348.21" cy="384.87" rx="47.92" ry="47.63"/>
        <path class="cls-1"
              d="M540.84,363.5c-7.71-82.23-70.31-153.73-158.46-168.25a48.05,48.05,0,0,1-82.78,4.1C220.12,220.81,161,291.43,159.31,376.44a184.28,184.28,0,0,0,8.31,58.73,47.51,47.51,0,0,1,29.39,57,193.55,193.55,0,0,0,307.44-.06c-116.38,49.3-212.51-8.85-212.51-8.85h0a112,112,0,1,1,124-9.31c34.85-.91,64.49-12.54,83-22a47.72,47.72,0,0,1,41.15-46.86c2.42-26.1,1.48-29.1,1.44-30.44Q541.37,369,540.84,363.5Z"/>
        <path class="cls-1"
              d="M802.12,272.28q-8.07-7.37-21.79-7.38h-59a16.81,16.81,0,0,1,13.38,6q5.15,6,5.15,12.52v27.45a10.54,10.54,0,0,0,10.64,10.64h29.85q13.72,0,21.79-6.86t8.06-20.93Q810.19,279.66,802.12,272.28Z"/>
        <path class="cls-1"
              d="M2315.54,365.79q9.6-.68,19.9-2.4a182.11,182.11,0,0,0,18.7-3.95,84.7,84.7,0,0,0,18.7-7.38l-26.42-75.49Z"/>
        <path class="cls-2"
              d="M581.18,419c4.27-25.17,3.48-33.73,3.31-42.86-.41-20.8-2.41-34.64-7.68-54.48A239.89,239.89,0,0,0,582.13,270c0-149.12-129.95-270-290.25-270C188.45,0,97.67,50.33,46.26,126.1A47.75,47.75,0,0,0,0,173.68a47.23,47.23,0,0,0,10.52,29.76A252.69,252.69,0,0,0,1.63,270c0,82,39.35,155.51,101.43,205-.15,1.55-.24,3.12-.24,4.72a48,48,0,0,0,65.48,44.31,235.52,235.52,0,0,0,177.16,85c86.1,1.76,162.26-42.22,204.22-109.14a47.75,47.75,0,0,0,45.11-47.54s0-.05,0-.08,0-.05,0-.08A46,46,0,0,0,581.18,419ZM123.87,438.31c-47.22-41.55-76.7-100.43-76.7-165.73A213.76,213.76,0,0,1,53.46,221a47.73,47.73,0,0,0,42.37-47.3A47.2,47.2,0,0,0,87.62,147C131.39,85.35,206.46,44.67,291.73,44.67c122.72,0,224.11,83.11,241.66,192.93v0c-36.23-44.76-89.06-74.89-149.79-83.45a48,48,0,0,0-89.21,4.12c-100.46,24-175.91,111.51-178.08,217.39A224.08,224.08,0,0,0,123.87,438.31Zm416.25-33.25A47.72,47.72,0,0,0,499,451.93c-18.56,9.46-48.2,21.09-83,22a112,112,0,1,0-124,9.31h0s96.13,58.16,212.51,8.85a193.55,193.55,0,0,1-307.44.06,47.51,47.51,0,0,0-29.39-57,184.28,184.28,0,0,1-8.31-58.73c1.74-85,60.81-155.62,140.29-177.09a48.05,48.05,0,0,0,82.78-4.1c88.15,14.53,150.75,86,158.46,168.25q.52,5.53.71,11.13C541.6,376,542.54,379,540.12,405.06Zm-144-20.19a47.92,47.92,0,1,1-47.92-47.62A47.77,47.77,0,0,1,396.13,384.88Z"/>
        <path class="cls-3"
              d="M838,366.13a8.49,8.49,0,0,1-.69-3.78c0-1.6.91-3.09,2.74-4.46q18.87-10.29,27.62-26.42t8.75-37.4q0-21.27-7.89-36.2a68.35,68.35,0,0,0-20.93-24.19,88.75,88.75,0,0,0-30.37-13.55,151.72,151.72,0,0,0-36.55-4.29H707.93A29.23,29.23,0,0,0,687,224.41a28.32,28.32,0,0,0-8.92,21.27V446.42a8.23,8.23,0,0,0,8.58,8.58h46.67a9.19,9.19,0,0,0,6.52-2.23,8.25,8.25,0,0,0,2.4-6.35V389.81q0-5.83-5-12t-13.9-6.18h45.29a10,10,0,0,1,9.27,5.49l34.66,68.63q4.12,9.26,14.07,9.26h48a7,7,0,0,0,5.15-2.06,8.75,8.75,0,0,0,2.06-5.15,8.55,8.55,0,0,0-1-3.77Zm-35.86-51.47q-8.07,6.87-21.79,6.86H750.48a10.54,10.54,0,0,1-10.64-10.64V283.43q0-6.51-5.15-12.52a16.81,16.81,0,0,0-13.38-6h59q13.72,0,21.79,7.38t8.06,21.45Q810.19,307.8,802.12,314.66Z"/>
        <path class="cls-3"
              d="M1087.79,403.87H987.59a9.62,9.62,0,0,1-7.72-3.43,11,11,0,0,1-2.92-7.21V377.11q0-6.86-5.49-12.35a18.23,18.23,0,0,0-13.38-5.49h104q8.92,0,8.92-8.92V319.46q0-8.92-8.92-8.92H987.59q-5.15,0-7.89-3.43A11.35,11.35,0,0,1,977,299.9V285.49q0-6.86-5.32-12.7A17.54,17.54,0,0,0,958.08,267h127a8.36,8.36,0,0,0,6.18-2.4,6.86,6.86,0,0,0,2.75-5.83v-34a9.41,9.41,0,0,0-8.92-8.92H945a29.53,29.53,0,0,0-20.93,8.41q-8.93,8.41-8.92,21.45V446.42a8.23,8.23,0,0,0,8.58,8.58h164a9.14,9.14,0,0,0,6.18-2.4,7.83,7.83,0,0,0,2.74-6.18V412.8a8.79,8.79,0,0,0-8.92-8.92Z"/>
        <path class="cls-3"
              d="M1332.45,267.82a79.77,79.77,0,0,0-22.65-29.17,93,93,0,0,0-33.8-16.81,159.9,159.9,0,0,0-42.38-5.32H1165a29.72,29.72,0,0,0-20.76,8.41q-9.1,8.41-9.09,21.45V447.11a8.23,8.23,0,0,0,8.58,8.58h91.62q102.94,0,106-93.68.34-4.8.34-11.32V321.35q0-6.69-.34-11.49Q1340.68,285.49,1332.45,267.82Zm-55.76,82.35q-.18,6.35-.51,11.15-.35,21.62-10.29,32.43t-32.26,10.81h-23.68a10.12,10.12,0,0,1-7.72-3.09,10.57,10.57,0,0,1-2.92-7.55V285.49q0-6.51-5.49-12.18a17.94,17.94,0,0,0-13.38-5.66h51.47q43.24,0,44.27,42.89.34,4.81.51,11.15t.17,14.24Q1276.86,343.83,1276.69,350.17Z"/>
        <path class="cls-4"
              d="M1611.42,216.52H1573q-8.93,0-12.35,7.55L1503,326.67a2.32,2.32,0,0,1-1.72.69,2,2,0,0,1-1.37-.69l-57.3-102.6q-3.43-7.55-12.35-7.55H1411a24.69,24.69,0,0,0-7.89,1.72,31.77,31.77,0,0,0-9.27,5.32,34.45,34.45,0,0,0-7.72,8.92,23.48,23.48,0,0,0-3.26,12.53V447.11a8,8,0,0,0,2.57,6.35,9.33,9.33,0,0,0,6.35,2.23h42.89a9.19,9.19,0,0,0,6.52-2.23,8.25,8.25,0,0,0,2.4-6.35v-117a1.82,1.82,0,0,1,2.06-2.06,1.35,1.35,0,0,1,1.37,1l33.28,61.42q5.15,7.9,12,7.89h18.19q7.89,0,12-7.89l33.63-61.42c.46-.69.91-1,1.37-1a1.82,1.82,0,0,1,2.06,2.06v117a8.23,8.23,0,0,0,8.58,8.58h43.24a9.14,9.14,0,0,0,6.18-2.4,7.82,7.82,0,0,0,2.74-6.18V225.44a9.42,9.42,0,0,0-8.92-8.92Z"/>
        <path class="cls-4"
              d="M1840,403.87h-100.2a9.62,9.62,0,0,1-7.72-3.43,11,11,0,0,1-2.92-7.21V377.11q0-6.86-5.49-12.35a18.23,18.23,0,0,0-13.38-5.49h104q8.92,0,8.92-8.92V319.46q0-8.92-8.92-8.92h-74.46q-5.15,0-7.89-3.43a11.35,11.35,0,0,1-2.74-7.21V285.49q0-6.86-5.32-12.7a17.54,17.54,0,0,0-13.55-5.83h127a8.36,8.36,0,0,0,6.18-2.4,6.86,6.86,0,0,0,2.74-5.83v-34a9.41,9.41,0,0,0-8.92-8.92h-140a29.53,29.53,0,0,0-20.93,8.41q-8.93,8.41-8.92,21.45V446.42a8.23,8.23,0,0,0,8.58,8.58h164a9.14,9.14,0,0,0,6.18-2.4,7.83,7.83,0,0,0,2.74-6.18V412.8a8.79,8.79,0,0,0-8.92-8.92Z"/>
        <path class="cls-4"
              d="M2084.61,267.82A79.77,79.77,0,0,0,2062,238.65a93,93,0,0,0-33.8-16.81,159.9,159.9,0,0,0-42.38-5.32h-68.63a29.73,29.73,0,0,0-20.76,8.41q-9.1,8.41-9.09,21.45V447.11a8.23,8.23,0,0,0,8.58,8.58h91.62q102.94,0,106-93.68.34-4.8.34-11.32V321.35q0-6.69-.34-11.49Q2092.84,285.49,2084.61,267.82Zm-55.76,82.35q-.18,6.35-.51,11.15-.35,21.62-10.29,32.43t-32.26,10.81h-23.68a10.12,10.12,0,0,1-7.72-3.09,10.58,10.58,0,0,1-2.92-7.55V285.49q0-6.51-5.49-12.18a17.94,17.94,0,0,0-13.38-5.66h51.47q43.24,0,44.27,42.89.34,4.81.51,11.15t.17,14.24Q2029,343.83,2028.85,350.17Z"/>
        <path class="cls-4"
              d="M2191.33,216.52h-27.45a29.53,29.53,0,0,0-20.93,8.41q-8.93,8.41-8.92,21.45V447.11a8.23,8.23,0,0,0,8.58,8.58h48.73q4.12,0,6.18-2.4a8.36,8.36,0,0,0,2.4-6.18v-222a8.38,8.38,0,0,0-2.4-6.18Q2195.45,216.52,2191.33,216.52Z"/>
        <path class="cls-4"
              d="M2386.92,226.47q-3.78-9.95-13.73-10H2320q-10,0-13.73,10L2226.67,445.4a8.49,8.49,0,0,0-.34,3.09,7,7,0,0,0,7.21,7.21h44.26q8.57,0,11.67-7.55l4.8-13q3.09-7.89-.86-13.9a13.9,13.9,0,0,0-10.47-6.69,28.3,28.3,0,0,0,5.15.34h8.24q7.54,0,17.84-.52t22.13-2.06a229.88,229.88,0,0,0,24.54-4.63,198.07,198.07,0,0,0,25-7.89l17.84,48.38q3.09,7.55,11.67,7.55h44.26a7.66,7.66,0,0,0,7.21-7.21,8.62,8.62,0,0,0-.34-3.09Zm-32.77,133a182.11,182.11,0,0,1-18.7,3.95q-10.29,1.72-19.9,2.4l30.88-89.22,26.42,75.49A84.7,84.7,0,0,1,2354.15,359.44Z"/>
        <path class="cls-4"
              d="M2668.29,403.53a9.17,9.17,0,0,0-6.18-2.4h-92.3a8.7,8.7,0,0,1-7.55-3.95q-2.75-3.94-2.74-6.69V224.07a8.38,8.38,0,0,0-2.4-6.18q-2.06-2.4-6.18-2.4h-26.42a29,29,0,0,0-11,2.23,31.83,31.83,0,0,0-9.61,6,29.29,29.29,0,0,0-6.69,9.27,28,28,0,0,0-2.57,12V446.08a8.8,8.8,0,0,0,8.58,8.58h158.87a9.14,9.14,0,0,0,6.18-2.4,7.83,7.83,0,0,0,2.75-6.18V409.71A7.85,7.85,0,0,0,2668.29,403.53Z"/>
    </g>
</svg>
