<svg width="103" height="20" viewBox="0 0 103 20" fill="none" xmlns="http://www.w3.org/2000/svg">
    <g clip-path="url(#clip0)">
        <path
            d="M21.6059 13.0246V15.2822C21.6059 17.1056 21.2785 18.3502 20.6238 19.0159C19.9691 19.6816 18.6894 20 16.8443 20H4.82115C2.79746 20 1.48801 19.6237 0.833285 18.8133C0.267842 18.1476 0 16.7873 0 14.7323L3.18434 13.9797V17.1925H18.5108V11.2012H5.59491C3.30338 11.2012 1.87489 10.6223 1.27969 9.49348C0.952326 8.85672 0.803525 7.29377 0.803525 4.71779C0.803525 4.19681 0.833285 3.73371 0.892806 3.29956L3.86882 3.76266V8.27785H16.8145C18.6894 8.27785 19.9393 8.62517 20.594 9.29088C21.2785 9.98552 21.6059 11.2301 21.6059 13.0246Z"
            fill="#7B68EE"/>
        <path d="M26.3674 7.35165V20H23.689V6.94644L26.3674 7.35165Z" fill="#7B68EE"/>
        <path
            d="M44.3129 10.2171C44.1938 10.4197 44.1046 10.5934 43.9855 10.767L38.5394 17.8582H37.8549L32.2302 10.8249C31.8136 10.3039 31.4565 9.63822 31.1886 8.85674C31.2482 10.0434 31.2482 10.6512 31.2482 10.7091V20.0579H29.0459V7.78583L32.9147 8.39364L38.2716 15.1664L42.1404 9.84082L44.3129 10.2171Z"
            fill="#7B68EE"/>
        <path
            d="M47.2295 10.6802V20.0289H44.7594V10.6223C44.7594 10.5065 44.7594 10.3907 44.7594 10.275L47.2295 10.6802Z"
            fill="#7B68EE"/>
        <path
            d="M63.5976 13.2561L54.4315 11.809H52.378V11.4906L49.6996 11.0564V20H60.7406C63.4786 20 64.8475 19.1027 64.8475 17.3082V15.5716C64.8475 14.4428 64.4309 13.6903 63.5976 13.2561ZM62.1989 16.4399C62.1989 17.0188 62.0798 17.424 61.8417 17.6556C61.6037 17.8871 61.187 18.0029 60.5918 18.0029H52.378V13.835H60.5621C61.6334 13.835 62.1691 14.356 62.1691 15.398V16.4399H62.1989Z"
            fill="#7B68EE"/>
        <path
            d="M84.1024 16.4978V16.7583C84.1024 18.0318 83.8643 18.9001 83.3584 19.3343C82.8823 19.7684 81.9597 20 80.6205 20H70.4127C69.0735 20 68.1807 19.7684 67.6748 19.3632C67.1986 18.9291 66.9308 18.0608 66.9308 16.7583V13.8061L69.6092 14.2402V17.945H81.3942V16.0926L84.1024 16.4978Z"
            fill="#7B68EE"/>
        <path d="M89.1913 17.3082V20H86.5426V16.903L89.1913 17.3082Z" fill="#7B68EE"/>
        <path d="M103 20H98.6252L96.2146 18.437L101.899 19.3343L103 20Z" fill="#7B68EE"/>
        <path
            d="M21.3678 4.80463C21.3678 2.95224 21.0405 1.67873 20.3857 1.01302C19.7013 0.347323 18.4513 0 16.5467 0H5.59493C3.72004 0 2.47011 0.318379 1.78563 0.984081C1.30946 1.44718 1.01186 2.22865 0.892822 3.32851L3.86884 3.79161V2.72069H18.4216V5.61505L21.3678 4.80463Z"
            fill="#5CEDAA"/>
        <path d="M23.6891 6.30969V6.94645L26.3675 7.3806V6.30969H23.6891Z" fill="#5CEDAA"/>
        <path d="M32.9445 8.39361L29.046 7.7858V6.28073H31.2482L32.9445 8.39361Z" fill="#5CEDAA"/>
        <path
            d="M47.2294 6.28073V10.6802L44.7593 10.2749C44.7593 9.7829 44.8188 9.29086 44.9081 8.82776C44.6998 9.37769 44.5212 9.84079 44.3129 10.2171L42.1404 9.86973L44.7593 6.28073H47.2294Z"
            fill="#5CEDAA"/>
        <path
            d="M61.6631 6.28073H49.7292V11.0854L52.4077 11.5195V8.27784H60.5917C61.6036 8.27784 62.0797 8.6541 62.0797 9.40663V10.7091C62.0797 11.1722 61.9607 11.4906 61.7226 11.6063C61.4845 11.7511 61.0976 11.8089 60.562 11.8089H54.4016L63.5677 13.2561C63.2106 13.0825 62.7642 12.9667 62.2583 12.9088C63.8951 12.7351 64.7284 11.9537 64.7284 10.5354V8.97248C64.7581 7.17798 63.7165 6.28073 61.6631 6.28073Z"
            fill="#5CEDAA"/>
        <path
            d="M83.3881 6.94643C82.9119 6.48334 81.9893 6.28073 80.6501 6.28073H70.4424C69.1032 6.28073 68.2104 6.51228 67.7045 6.94643C67.2283 7.40953 66.9604 8.27784 66.9604 9.55135V13.8061L69.6389 14.2402V8.30678H81.4239V16.0926L84.1023 16.5267V9.55135C84.1023 8.27784 83.8642 7.40953 83.3881 6.94643Z"
            fill="#5CEDAA"/>
        <path
            d="M91.3935 12.9088L101.839 6.2518H98.1491L89.221 12.1563V6.28074H86.5426V16.903L89.221 17.3372V13.864L96.2444 18.437L101.929 19.3343L91.3935 12.9088Z"
            fill="#5CEDAA"/>
    </g>
    <defs>
        <clipPath id="clip0">
            <rect width="103" height="20" fill="white"/>
        </clipPath>
    </defs>
</svg>
